<?xml version="1.0" encoding="UTF-8"?>
<svg width="217px" height="216px" viewBox="0 0 217 216" version="1.1" xmlns="http://www.w3.org/2000/svg" xmlns:xlink="http://www.w3.org/1999/xlink">
    <!-- Generator: Sketch 50.2 (55047) - http://www.bohemiancoding.com/sketch -->
    <title>Artboard</title>
    <desc>Created with Sketch.</desc>
    <defs>
        <path d="M14.12,183.76 C2.12,164.813333 -2.21333333,141.176667 1.12,112.85 C9.12,44.85 5.12,5.85 65.12,0.85 C125.12,-4.15 191.12,11.85 208.12,77.85 C225.12,143.85 217.12,179.85 181.12,192.85 C160.173333,200.41 122.756667,206.46 68.87,211 C46.9712635,212.824351 25.8731768,202.32733 14.12,183.76 Z" id="path-1"></path>
        <linearGradient x1="-0.991422901%" y1="3.30549826%" x2="94.0074755%" y2="100.290123%" id="linearGradient-3">
            <stop stop-color="#7CC3EC" offset="0%"></stop>
            <stop stop-color="#82B6EE" offset="100%"></stop>
        </linearGradient>
    </defs>
    <g id="Artboard" stroke="none" stroke-width="1" fill="none" fill-rule="evenodd">
        <g id="Icon2" transform="translate(0.000000, 2.000000)">
            <g id="Group">
                <g id="Mask-4">
                    <mask id="mask-2" fill="white">
                        <use xlink:href="#path-1"></use>
                    </mask>
                    <use id="path-1-2" fill="#9DDCF0" fill-rule="nonzero" xlink:href="#path-1"></use>
                    <path d="M18.12,287.76 C6.12,268.813333 1.78666667,245.176667 5.12,216.85 C13.12,148.85 9.12,109.85 69.12,104.85 C129.12,99.85 195.12,115.85 212.12,181.85 C229.12,247.85 221.12,283.85 185.12,296.85 C164.173333,304.41 126.756667,310.46 72.87,315 C50.9712635,316.824351 29.8731768,306.32733 18.12,287.76 Z" id="Path-11-Copy-2" fill="url(#linearGradient-3)" fill-rule="nonzero" mask="url(#mask-2)"></path>
                </g>
            </g>
            <g id="Group-Copy" transform="translate(42.000000, 41.000000)" fill-rule="nonzero">
                <path d="M16.1,122.93 L16.1,105.54 C16.1,95.3558692 24.3558692,87.1 34.54,87.1 C44.7241308,87.1 52.98,95.3558692 52.98,105.54 L52.98,122.93 L16.1,122.93 Z M34.54,78 C19.3369319,78.0165341 7.01653407,90.3369319 7,105.54 L7,132 L62.08,132 L62.08,105.54 C62.0634659,90.3369319 49.7430681,78.0165341 34.54,78 Z" id="Fill-1" fill="#F5EF93"></path>
                <path d="M52.43,122.48 L15.55,122.48 L15.55,105.1 C15.5500002,94.9158694 23.8058694,86.6600004 33.99,86.6600004 C44.1741306,86.6600004 52.4299998,94.9158694 52.43,105.1 L52.43,122.48 Z M34,83 C21.8497355,83 12,92.8497355 12,105 L12,126.15 L56,126.15 L56,105 C56,99.1652372 53.6821495,93.5694511 49.5563492,89.4436508 C45.4305489,85.3178505 39.8347628,83 34,83 Z" id="Fill-3" fill="#FFC800"></path>
                <g id="Group-7" transform="translate(0.000000, 115.000000)" fill="#F5EF93">
                    <path d="M62.75,56 L6.75,56 C3.01884511,55.9889773 -1.62816636e-05,52.9611712 0,49.23 L0,7.31 C0,3.57103224 3.03103224,0.54 6.77,0.54 L62.77,0.54 C66.5089678,0.54 69.54,3.57103224 69.54,7.31 L69.54,49.23 C69.54,52.9689678 66.5089678,56 62.77,56" id="Fill-5"></path>
                </g>
                <path d="M62.5,115 L45.8,115 C42.1289919,126.350357 36.5341929,136.985211 29.26,146.44 C22.54,155.17 12,166.25 0,166 C0.930053914,168.662107 3.44010586,170.446409 6.26,170.45 L62.5,170.45 C66.1671707,170.45 69.14,167.477171 69.14,163.81 L69.14,121.64 C69.14,117.972829 66.1671707,115 62.5,115" id="Fill-10" fill="#F8CA1C" opacity="0.5"></path>
                <path d="M41,77.53 L42.33,82.11 C42.402707,82.5272652 42.5976,82.9135709 42.89,83.22 C43.3627732,83.5274979 43.934141,83.6453425 44.49,83.55 C45.1807561,83.5959973 45.866163,83.4016809 46.43,83 C46.7111586,82.7275984 46.9088779,82.3807224 47,82 C47.2301276,80.8490156 47.0003928,79.6536771 46.36,78.67 C45.7288359,77.6833971 44.9687898,76.7854665 44.1,76" id="Fill-12" fill="#FAB9AF"></path>
                <g id="Group-16" transform="translate(123.000000, 18.000000)" fill="#FAB9AF">
                    <path d="M0.8,7 C1.34380123,4.8514843 2.08011226,2.75634472 3,0.74 C3.39388741,1.40532888 3.51568971,2.19704387 3.34,2.95 C3.80983158,1.82588583 4.67393702,0.911996536 5.77,0.38 C5.89450329,0.300126379 6.04632166,0.274823317 6.19,0.31 C6.34,0.37 6.4,0.55 6.44,0.71 C7.32359326,4.12854856 5.52286147,7.66998775 2.24,8.97" id="Fill-14"></path>
                </g>
                <path d="M78.06,167 C81.95,167.95 85.21,169.09 87,170.7 L72,170.7 L72.29,167.22 L78.06,167 Z" id="Fill-17" fill="#14181A"></path>
                <path d="M59.93,167 C56.04,167.95 52.79,169.09 51,170.7 L66,170.7 L65.71,167.22 L59.93,167 Z" id="Fill-19" fill="#14181A"></path>
                <path d="M86.48,80.25 L79.41,168.25 C78.3153794,168.527546 77.2026535,168.728037 76.08,168.85 C75.4280342,168.803379 74.7799194,168.713177 74.14,168.58 C73.32,168.42 72.61,168.25 72.61,168.25 L70,101.73 L66.68,101.73 L66,168.25 C64.8276489,168.580107 63.6177455,168.758232 62.4,168.78 C61.0819179,168.738151 59.7716602,168.560546 58.49,168.25 L50,78 L86.48,80.25 Z" id="Fill-21" fill="#14181A"></path>
                <path d="M72.46,78.77 L60,78 C59.85,94.21 62.28,152.13 62.53,168.11 C63.5450347,168.044962 64.5504947,167.874034 65.53,167.6 L66.17,101.08 L69.49,101.08 L72.13,167.6 C72.13,167.6 72.85,167.77 73.67,167.94 L74.4,168.06 C74.4,149.95 72.76,86.22 72.4,78.77" id="Fill-23" fill="#14181A"></path>
                <path d="M62.47,17.1 C62.47,17.1 62.47,17.17 62.47,17.21 C63,20.12 65.76,21.61 68.83,22.46 C71.33,23.15 71.91,23.46 73.91,22.01 C78.07,19.01 81.76,15.01 80.56,9.52 C80.5130327,9.3146346 80.5489665,9.09903194 80.66,8.92 C79.48,6.8 77.3,5.78 74.88,3.59 C66.75,-3.77 57.09,6.46 60.75,10.68 C61.8524875,12.6395735 62.4278876,14.8515906 62.42,17.1" id="Fill-25" fill="#14181A"></path>
                <path d="M90.44,52.13 C90.44,35.4 83.51,25 70.25,25 C56.99,25 50,39 50,55.72 L48,104.44 C48,104.44 78.91,110.57 90.66,104.83 L90.44,52.13 Z" id="Fill-27" fill="#F8CA1C"></path>
                <path d="M77.09,14.35 C76.6,11.06 73.66,7.76 70.09,9.47 C68.0654234,10.5790937 65.6344338,10.6607453 63.54,9.69 C63.54,10.32 63.41,11.25 63.34,12.22 C62.94,11.49 62.28,11.38 62.08,12.29 C61.88,13.2 62.13,15.07 63.18,15.41 C63.18,15.58 63.18,15.75 63.18,15.89 C63.18,18.35 64.24,22.27 68.18,23.2 C68.3715779,23.9640349 68.3333116,24.7676265 68.07,25.51 C68.29,26.29 71.4,26.78 72.42,25.87 C72.3396327,25.0191913 72.3129132,24.1641666 72.34,23.31 C74.7,22.93 76.68,20.61 77.57,17.61 C81.13,15.61 78.57,11.97 77.06,14.35" id="Fill-31" fill="#FAB9AF"></path>
                <path d="M76.48,14.59 C76.2826322,13.2664736 75.7218215,12.0236894 74.86,11 C74.96,16.72 72.52,22 67,23.27 L67.6,23.44 C67.7915779,24.2040349 67.7533116,25.0076265 67.49,25.75 C67.71,26.53 70.82,27.02 71.84,26.11 C71.7496359,25.2598484 71.7228948,24.404135 71.76,23.55 C74.12,23.17 76.09,20.85 76.98,17.85 C80.55,15.85 77.98,12.21 76.48,14.59" id="Fill-33" fill="#FAB9AF"></path>
                <path d="M61.34,27 C45.8,34.51 30.44,58.72 32.13,64.06 C33.82,69.4 38.13,75.64 41,79.82 L46.65,78.82 C46.65,78.82 39.95,68.82 40.2,62.69 C40.35,58.91 55.2,46.5 55.2,46.5 L61.34,27 Z" id="Fill-35" fill="#4D94E5"></path>
                <path d="M81,28.09 C83.43,29.84 103.74,42.01 114.91,31.26 C123,23.5 123.78,22 123.78,22 L126.55,26.9 C126.55,26.9 113.93,49.17 98.66,46.59 C83.39,44.01 83,43.23 83,43.23 L81,28.09 Z" id="Fill-37" fill="#4D94E5"></path>
                <path d="M67.21,25 C62.5433333,43 60.8766667,58 62.21,70 C63.5433333,82 64.21,89.3333333 64.21,92 C56.8766667,94.6666667 51.5433333,94.6666667 48.21,92 C47.21,84 50.06,60.13 50.21,58 C50.36,55.87 50.11,49.19 50.21,49 C50.31,48.81 59.21,28 61.21,27 C63.1373931,26.1325904 65.1476397,25.4625082 67.21,25 Z" id="Path-5" fill="#4D94E5"></path>
                <path d="M74,25 C78.6666667,43 80.3333333,58 79,70 C77.6666667,82 77,89.3333333 77,92 C84.3333333,94.6666667 89.6666667,94.6666667 93,92 C94,84 91.15,60.13 91,58 C90.85,55.87 90.1,44.19 90,44 C89.9,43.81 82,28 80,27 C78.0738501,26.1294108 76.0632735,25.4592186 74,25 Z" id="Path-5-Copy" fill="#4D94E5"></path>
                <path d="M44.21,139.11 C44.1987898,134.148399 40.5887766,129.928179 35.6888126,129.148462 C30.7888486,128.368744 26.0472078,131.259988 24.4964963,135.973045 C22.9457847,140.686101 25.0443437,145.82794 29.45,148.11 L29.45,159 L38.76,159 L38.76,148.07 C42.1224616,146.331314 44.2273508,142.85535 44.21,139.07" id="Fill-8" fill="#14181A"></path>
                <path d="M50,50.2 C50.6666667,47.5333333 51.6666667,46.5333333 53,47.2 C55,48.2 48,92.2 48,90.2 L48,88.2 L50,50.2 Z" id="Path-6-2" fill="#3F7BBF"></path>
                <path d="M93,91.54 L92.9,90.86 C89.6333333,69.2733333 87.6666667,56.5 87,52.54 C86,46.54 83,33.54 87,39.54 C91,45.54 107,43.54 108,44.54 C108.67,45.21 106.33,45.88 101,46.54 L95,46.54 C93.1775791,46.3602223 91.4436687,45.6666581 90,44.54 C90,45.2066667 90.3333333,48.2066667 91,53.54 C91.6666667,58.8733333 92.3333333,68.8733333 93,83.54" id="Path-7" fill="#3F7BBF"></path>
            </g>
        </g>
    </g>
</svg>